HIERARCHY
ROOT pelvis
{
	OFFSET 0.003123 -0.351407 0.012037
	CHANNELS 6 Xposition Yposition Zposition Zrotation Yrotation Xrotation 
	JOINT left_hip
	{
		OFFSET 0.058189 -0.092763 -0.026001
		CHANNELS 3 Zrotation Yrotation Xrotation
		JOINT left_knee
		{
			OFFSET 0.054695 -0.378753 -0.009396
			CHANNELS 3 Zrotation Yrotation Xrotation
			JOINT left_ankle
			{
				OFFSET -0.043453 -0.403059 -0.031876
				CHANNELS 3 Zrotation Yrotation Xrotation
				JOINT left_foot
				{
					OFFSET 0.047257 -0.057997 0.118216
					CHANNELS 3 Zrotation Yrotation Xrotation
					End Site
					{
						OFFSET 0.000000 0.000000 0.000000
					}
				}
			}
		}
	}
	JOINT right_hip
	{
		OFFSET -0.063267 -0.103908 -0.021250
		CHANNELS 3 Zrotation Yrotation Xrotation
		JOINT right_knee
		{
			OFFSET -0.044210 -0.362380 -0.016824
			CHANNELS 3 Zrotation Yrotation Xrotation
			JOINT right_ankle
			{
				OFFSET 0.015417 -0.410728 -0.020192
				CHANNELS 3 Zrotation Yrotation Xrotation
				JOINT right_foot
				{
					OFFSET -0.038812 -0.058328 0.119049
					CHANNELS 3 Zrotation Yrotation Xrotation
					End Site
					{
						OFFSET 0.000000 0.000000 0.000000
					}
				}
			}
		}
	}
	JOINT spine_1
	{
		OFFSET -0.002763 0.109891 -0.027618
		CHANNELS 3 Zrotation Yrotation Xrotation
		JOINT spine_2
		{
			OFFSET 0.009448 0.131853 -0.005940
			CHANNELS 3 Zrotation Yrotation Xrotation
			JOINT spine_3
			{
				OFFSET -0.011330 0.052235 0.028447
				CHANNELS 3 Zrotation Yrotation Xrotation
				JOINT neck
				{
					OFFSET -0.012164 0.165167 -0.031615
					CHANNELS 3 Zrotation Yrotation Xrotation
					JOINT head
					{
						OFFSET 0.024783 0.160452 0.020737
						CHANNELS 3 Zrotation Yrotation Xrotation
						End Site
						{
							OFFSET 0.000000 0.000000 0.000000
						}
					}
				}
				JOINT left_collar
				{
					OFFSET 0.046364 0.084944 -0.007220
					CHANNELS 3 Zrotation Yrotation Xrotation
					JOINT left_shoulder
					{
						OFFSET 0.119239 0.057728 -0.015461
						CHANNELS 3 Zrotation Yrotation Xrotation
						JOINT left_elbow
						{
							OFFSET 0.254123 -0.072151 -0.042459
							CHANNELS 3 Zrotation Yrotation Xrotation
							JOINT left_wrist
							{
								OFFSET 0.251987 0.023221 -0.002472
								CHANNELS 3 Zrotation Yrotation Xrotation
								JOINT left_index_1
								{
									OFFSET 0.101902 -0.008688 0.019351
									CHANNELS 3 Zrotation Yrotation Xrotation
									JOINT left_index_2
									{
										OFFSET 0.030149 -0.011154 0.001151
										CHANNELS 3 Zrotation Yrotation Xrotation
										JOINT left_index_3
										{
											OFFSET 0.006504 -0.021577 -0.002433
											CHANNELS 3 Zrotation Yrotation Xrotation
											End Site
											{
												OFFSET 0.000000 0.000000 0.000000
											}
										}
									}
								}
								JOINT left_middle_1
								{
									OFFSET 0.109398 -0.006328 -0.003981
									CHANNELS 3 Zrotation Yrotation Xrotation
									JOINT left_middle_2
									{
										OFFSET 0.026472 -0.015218 -0.004641
										CHANNELS 3 Zrotation Yrotation Xrotation
										JOINT left_middle_3
										{
											OFFSET 0.005022 -0.023347 -0.001911
											CHANNELS 3 Zrotation Yrotation Xrotation
											End Site
											{
												OFFSET 0.000000 0.000000 0.000000
											}
										}
									}
								}
								JOINT left_pinky_1
								{
									OFFSET 0.084047 -0.014539 -0.043750
									CHANNELS 3 Zrotation Yrotation Xrotation
									JOINT left_pinky_2
									{
										OFFSET 0.012124 -0.014448 -0.005375
										CHANNELS 3 Zrotation Yrotation Xrotation
										JOINT left_pinky_3
										{
											OFFSET 0.003798 -0.018853 0.000167
											CHANNELS 3 Zrotation Yrotation Xrotation
											End Site
											{
												OFFSET 0.000000 0.000000 0.000000
											}
										}
									}
								}
								JOINT left_ring_1
								{
									OFFSET 0.097444 -0.009268 -0.027345
									CHANNELS 3 Zrotation Yrotation Xrotation
									JOINT left_ring_2
									{
										OFFSET 0.023561 -0.016057 -0.001895
										CHANNELS 3 Zrotation Yrotation Xrotation
										JOINT left_ring_3
										{
											OFFSET 0.004257 -0.023548 0.000814
											CHANNELS 3 Zrotation Yrotation Xrotation
											End Site
											{
												OFFSET 0.000000 0.000000 0.000000
											}
										}
									}
								}
								JOINT left_thumb_1
								{
									OFFSET 0.040636 -0.017977 0.025611
									CHANNELS 3 Zrotation Yrotation Xrotation
									JOINT left_thumb_2
									{
										OFFSET 0.021637 -0.017639 0.011623
										CHANNELS 3 Zrotation Yrotation Xrotation
										JOINT left_thumb_3
										{
											OFFSET 0.024002 -0.008356 0.006548
											CHANNELS 3 Zrotation Yrotation Xrotation
											End Site
											{
												OFFSET 0.000000 0.000000 0.000000
											}
										}
									}
								}
							}
						}
					}
				}
				JOINT right_collar
				{
					OFFSET -0.047695 0.084339 -0.013400
					CHANNELS 3 Zrotation Yrotation Xrotation
					JOINT right_shoulder
					{
						OFFSET -0.102578 0.053524 -0.012669
						CHANNELS 3 Zrotation Yrotation Xrotation
						JOINT right_elbow
						{
							OFFSET -0.271150 -0.036492 -0.026467
							CHANNELS 3 Zrotation Yrotation Xrotation
							JOINT right_wrist
							{
								OFFSET -0.249267 -0.004533 -0.015325
								CHANNELS 3 Zrotation Yrotation Xrotation
								JOINT right_index_1
								{
									OFFSET -0.099881 -0.011783 0.019600
									CHANNELS 3 Zrotation Yrotation Xrotation
									JOINT right_index_2
									{
										OFFSET -0.030148 -0.011154 0.001151
										CHANNELS 3 Zrotation Yrotation Xrotation
										JOINT right_index_3
										{
											OFFSET -0.006505 -0.021577 -0.002432
											CHANNELS 3 Zrotation Yrotation Xrotation
											End Site
											{
												OFFSET 0.000000 0.000000 0.000000
											}
										}
									}
								}
								JOINT right_middle_1
								{
									OFFSET -0.107376 -0.009422 -0.003734
									CHANNELS 3 Zrotation Yrotation Xrotation
									JOINT right_middle_2
									{
										OFFSET -0.026472 -0.015218 -0.004641
										CHANNELS 3 Zrotation Yrotation Xrotation
										JOINT right_middle_3
										{
											OFFSET -0.005022 -0.023347 -0.001911
											CHANNELS 3 Zrotation Yrotation Xrotation
											End Site
											{
												OFFSET 0.000000 0.000000 0.000000
											}
										}
									}
								}
								JOINT right_pinky_1
								{
									OFFSET -0.082027 -0.017634 -0.043503
									CHANNELS 3 Zrotation Yrotation Xrotation
									JOINT right_pinky_2
									{
										OFFSET -0.012123 -0.014448 -0.005374
										CHANNELS 3 Zrotation Yrotation Xrotation
										JOINT right_pinky_3
										{
											OFFSET -0.003798 -0.018852 0.000167
											CHANNELS 3 Zrotation Yrotation Xrotation
											End Site
											{
												OFFSET 0.000000 0.000000 0.000000
											}
										}
									}
								}
								JOINT right_ring_1
								{
									OFFSET -0.095423 -0.012362 -0.027099
									CHANNELS 3 Zrotation Yrotation Xrotation
									JOINT right_ring_2
									{
										OFFSET -0.023561 -0.016057 -0.001895
										CHANNELS 3 Zrotation Yrotation Xrotation
										JOINT right_ring_3
										{
											OFFSET -0.004257 -0.023548 0.000816
											CHANNELS 3 Zrotation Yrotation Xrotation
											End Site
											{
												OFFSET 0.000000 0.000000 0.000000
											}
										}
									}
								}
								JOINT right_thumb_1
								{
									OFFSET -0.038613 -0.021074 0.025861
									CHANNELS 3 Zrotation Yrotation Xrotation
									JOINT right_thumb_2
									{
										OFFSET -0.021636 -0.017639 0.011623
										CHANNELS 3 Zrotation Yrotation Xrotation
										JOINT right_thumb_3
										{
											OFFSET -0.024004 -0.008353 0.006547
											CHANNELS 3 Zrotation Yrotation Xrotation
											End Site
											{
												OFFSET 0.000000 0.000000 0.000000
											}
										}
									}
								}
							}
						}
					}
				}
			}
		}
	}
}
MOTION
Frames: 4
Frame Time: 0.050000
-0.521027 1.052631 1.451141 94.848247 76.183116 83.910873 -37.081006 -4.005517 17.595433 19.123013 -0.863235 -11.810943 15.696630 8.127596 75.336817 0.000000 0.000000 0.000000 -0.274396 -3.749994 -14.412916 -20.342098 -0.006599 12.404184 55.387405 -7.052708 47.191152 0.000000 0.000000 0.000000 0.298781 -0.999554 25.393260 -69.960696 -41.005463 -12.560486 94.646409 45.984502 45.890069 -21.350080 -13.899008 16.711149 0.000000 0.000000 0.000000 -5.166983 0.936090 -59.485058 -25.271666 56.880982 -5.684814 -36.026114 -2.765117 -2.304133 3.917192 0.359295 39.448045 -19.998042 9.308552 0.413048 11.952652 3.735859 12.487637 0.000000 0.000000 0.000000 -34.569248 4.168263 -7.850856 -57.758536 1.631371 -12.955638 0.000000 0.000000 0.000000 39.717452 -12.800657 -4.586335 97.710161 14.762535 -169.518455 0.000000 0.000000 0.000000 -23.677172 4.419806 -3.567919 -78.111894 -55.520307 -22.467947 0.000000 0.000000 0.000000 6.919260 21.055185 17.200828 -2.218595 -11.577379 -3.875050 0.000000 0.000000 0.000000 -2.696001 12.070968 68.487906 16.405636 70.573726 27.430908 -6.426985 14.192984 -0.983830 -6.392967 7.646749 -44.515626 -10.375430 -4.405512 1.751295 -20.396850 9.881186 -22.460466 0.000000 0.000000 0.000000 56.862912 42.871985 11.129876 89.417855 17.552582 -47.941811 0.000000 0.000000 0.000000 11.493754 31.256043 -24.929193 30.625310 9.620600 -19.548344 0.000000 0.000000 0.000000 45.921936 45.316565 2.130198 125.559917 -21.426099 -32.682396 0.000000 0.000000 0.000000 -19.805037 -7.879860 -1.913791 31.718129 -22.864283 26.181675 0.000000 0.000000 0.000000 
-0.521027 1.051987 1.451141 94.742246 76.157753 83.816967 -37.112135 -4.015923 17.574656 19.129747 -0.862496 -11.803929 15.729202 8.119607 75.361066 0.000000 0.000000 0.000000 -0.396247 -3.610871 -13.891919 -18.769163 0.218984 11.382920 54.417106 -7.103145 47.396292 0.000000 0.000000 0.000000 0.386862 -0.569263 23.360875 -73.141209 -39.754872 -8.954956 97.144374 46.722942 46.343232 -21.357223 -13.587816 16.762954 0.000000 0.000000 0.000000 -5.960502 0.486676 -58.610194 -26.931831 56.029864 -6.114704 -35.094188 -3.490494 -1.925943 3.956848 1.696409 40.382626 -19.766219 9.180843 0.371834 9.775628 4.072527 11.697231 0.000000 0.000000 0.000000 -36.175744 4.995048 -8.555991 -56.325665 3.799755 -10.825442 0.000000 0.000000 0.000000 34.711021 -10.895377 -2.601584 73.488469 -53.385661 -150.872798 0.000000 0.000000 0.000000 -21.702504 -5.240932 -4.114930 -85.967705 -41.578204 -14.864921 0.000000 0.000000 0.000000 8.577876 17.711192 14.510871 -6.685695 -6.333476 0.098892 0.000000 0.000000 0.000000 -3.590288 13.640307 69.477995 17.414597 70.110716 28.456169 -7.617507 14.661848 -1.142400 -6.984226 7.367460 -44.822195 -10.691851 -4.333839 1.780008 -15.780573 7.857630 -16.494710 0.000000 0.000000 0.000000 54.314356 43.827314 10.159258 89.599132 9.292469 -39.450979 0.000000 0.000000 0.000000 9.859112 31.336125 -25.723990 28.440339 9.027573 -18.834320 0.000000 0.000000 0.000000 51.819322 38.660348 6.093188 134.058885 -26.168135 -38.319308 0.000000 0.000000 0.000000 -17.279306 -11.323182 0.421709 27.008535 -15.165540 20.116422 0.000000 0.000000 0.000000 
-0.521027 1.051342 1.451141 72.314909 74.817996 63.861496 -38.482954 -4.643139 13.543669 20.833648 -0.919142 -11.277717 15.047334 8.921128 78.093557 0.000000 0.000000 0.000000 1.168252 -3.656413 -17.082362 -19.021941 0.541544 10.525813 56.705805 -11.914359 52.019299 0.000000 0.000000 0.000000 0.733632 -0.238406 19.803672 -68.945848 -34.266647 -13.316092 95.192114 54.749914 46.377465 -18.069971 -13.192876 18.652654 0.000000 0.000000 0.000000 -7.035012 -4.968325 -52.500752 -30.856497 50.492221 -8.467716 -33.680197 -5.660100 -1.207545 3.636081 -0.254633 36.031417 -21.524602 12.558809 0.669847 14.715804 -0.652231 4.293695 0.000000 0.000000 0.000000 -37.630992 9.887545 -8.717807 -54.420921 -6.354739 -17.799570 0.000000 0.000000 0.000000 34.272180 -13.190787 -4.797636 117.976574 41.143666 -156.616873 0.000000 0.000000 0.000000 -25.820373 2.401213 -4.415492 -88.191056 -33.276071 -7.917327 0.000000 0.000000 0.000000 8.258905 19.271302 15.679948 -7.009972 -6.632183 0.081411 0.000000 0.000000 0.000000 1.663931 9.236112 68.545948 17.926240 67.503214 24.697365 -6.353013 15.303643 -1.189828 -4.766879 6.864749 -42.638591 -9.905741 -0.946618 0.658984 -16.308430 6.128123 -13.836717 0.000000 0.000000 0.000000 59.666436 35.828982 10.711257 82.903609 17.321635 -42.904210 0.000000 0.000000 0.000000 6.775055 30.573456 -27.297269 54.501792 -2.863872 -5.963623 0.000000 0.000000 0.000000 49.813229 39.339138 4.356828 148.308080 -32.887782 -47.262501 0.000000 0.000000 0.000000 -15.255589 -11.159037 0.824298 28.127494 -20.293019 24.129353 0.000000 0.000000 0.000000 
-0.521027 1.050697 1.451141 72.593658 74.827544 64.123532 -37.873593 -4.369632 13.634602 19.862374 -0.797389 -11.590006 15.384171 8.878909 77.792903 0.000000 0.000000 0.000000 1.635785 -3.377761 -16.684818 -19.982790 0.504934 10.119318 57.614406 -15.896553 53.390009 0.000000 0.000000 0.000000 0.393166 -0.423092 21.841482 -63.486635 -39.603331 -21.836308 96.028932 45.626168 50.868125 -22.856996 -15.550653 17.141154 0.000000 0.000000 0.000000 -4.486677 -2.944735 -66.468910 -12.041947 62.955989 4.983333 -36.000622 -3.299758 -2.406849 3.514211 2.262601 43.167518 -17.661694 10.643414 1.108237 9.578273 2.409619 8.436014 0.000000 0.000000 0.000000 -34.692194 4.274322 -8.275367 -60.055770 6.083320 -8.283577 0.000000 0.000000 0.000000 41.115620 -9.754390 -1.649197 98.422064 32.315817 -175.451920 0.000000 0.000000 0.000000 -20.367510 -5.620825 -4.154783 -82.438290 -62.989400 -17.239425 0.000000 0.000000 0.000000 6.298097 18.019206 14.496210 -8.902979 -1.612389 2.407543 0.000000 0.000000 0.000000 -7.001540 11.243121 79.856581 -12.756109 76.189151 7.893660 -10.302371 11.707640 -1.134422 -8.068072 6.006323 -50.514535 -14.436802 -1.144965 1.468351 -16.605092 10.107759 -19.335965 0.000000 0.000000 0.000000 56.461676 44.204587 12.163299 96.552533 8.704614 -45.912249 0.000000 0.000000 0.000000 12.105731 32.698384 -24.546373 22.294830 2.330196 -8.541030 0.000000 0.000000 0.000000 45.729537 45.435217 3.304549 130.855814 -15.571298 -37.838870 0.000000 0.000000 0.000000 -23.053115 -8.059617 -2.087178 35.916755 -19.445877 26.300176 0.000000 0.000000 0.000000 
